<svg xmlns="http://www.w3.org/2000/svg"
     width="64"
     height="64">

    <defs>
        <radialGradient id="radialGradient1">
            <stop offset="0%"
                  stop-color="#7dd3fc" />
            <stop offset="100%"
                  stop-color="#3b82f6" />
        </radialGradient>
    </defs>

    <style>
        #metis1 {
            fill: url(#radialGradient1);
        }

        #circle1 {
            stroke: url(#radialGradient1);
            stroke-width: 2;
            fill: transparent;
        }
    </style>

    <g>
        <svg xmlns="http://www.w3.org/2000/svg"
             viewBox="-10 -10 120 120
             ">
            <path id="metis1"
                  d="M88.078 66.906C80.246 53.272 65.723 44.867 50 44.867 34.277 44.867 19.754 53.272 11.922 66.906L10.489 69.406 11.922 71.906C19.778 85.513 34.288 93.906 50 93.931L50 93.931C65.715 93.904 80.226 85.505 88.078 71.892L89.511 69.392 88.078 66.906ZM50 83.931L50 83.931C42.274 83.931 36.011 77.668 36.011 69.942 36.011 62.216 42.274 55.953 50 55.953 57.726 55.953 63.989 62.216 63.989 69.942 63.981 77.664 57.723 83.923 50 83.931L50 83.931ZM22.175 69.397C23.508 67.486 25.035 65.717 26.731 64.119 25.89 67.474 25.788 70.972 26.433 74.369 24.857 72.853 23.431 71.188 22.175 69.397L22.175 69.397ZM73.564 74.381C74.209 70.983 74.107 67.485 73.267 64.131 74.963 65.728 76.489 67.497 77.822 69.408 76.568 71.199 75.144 72.864 73.569 74.381L73.564 74.381ZM50 62.442C54.142 62.442 57.5 65.8 57.5 69.942 57.5 74.084 54.142 77.442 50 77.442 45.858 77.442 42.5 74.084 42.5 69.942 42.5 65.8 45.858 62.442 50 62.442ZM36.869 37.114L41.503 29.092 32.239 29.092 32.239 19.092 41.503 19.092 36.869 11.069 45.531 6.069 50.161 14.092 54.792 6.069 63.453 11.069 58.822 19.092 68.086 19.092 68.086 29.092 58.822 29.092 63.453 37.114 54.792 42.114 50.161 34.092 45.531 42.114 36.869 37.114Z"
                  fill="url(radialGradient1)"></path>
        </svg>

        <circle id="circle1"
                cx="32"
                cy="32"
                r='30' />
    </g>
</svg>
